<svg xmlns:xlink="http://www.w3.org/1999/xlink" xmlns="http://www.w3.org/2000/svg" class="svg-bc-right-top standalone" width="149.97402345441736" viewBox="65 197.81926872386938 149.97402345441736 74.36201158515954" height="74.36201158515954">
    <g data-paper-data="{&quot;isIcon&quot;:&quot;true&quot;,&quot;iconType&quot;:&quot;icon&quot;,&quot;rawIconId&quot;:&quot;25721&quot;,&quot;selectedEffects&quot;:{&quot;container&quot;:&quot;&quot;,&quot;transformation&quot;:&quot;&quot;,&quot;pattern&quot;:&quot;&quot;},&quot;isDetailed&quot;:false,&quot;iconStyle&quot;:&quot;standalone&quot;,&quot;bounds&quot;:{&quot;x&quot;:65,&quot;y&quot;:197.81926872386938,&quot;width&quot;:149.97402345441736,&quot;height&quot;:74.36201158515954},&quot;fillRule&quot;:&quot;evenodd&quot;,&quot;suitableAsStandaloneIcon&quot;:true}" fill-rule="evenodd">
        <g data-paper-data="{&quot;isPathIcon&quot;:true}">
            <path d="M65,234.99727c0,-20.529 33.57071,-37.17801 74.98701,-37.17801c41.41701,0 74.98901,16.649 74.98701,37.17801c0,20.535 -33.57001,37.18401 -74.98701,37.18401c-41.41631,0 -74.98701,-16.649 -74.98701,-37.18401zM79.816,232.54227c0,16.459 26.937,29.805 60.17101,29.805c33.23501,0 60.17401,-13.346 60.17401,-29.805c0,-16.46 -26.939,-29.806 -60.17401,-29.806c-33.23401,0 -60.17101,13.346 -60.17101,29.806z" fill="#F6BE00" style=""/>
            <path d="M139.98701,206.74327c-21.699,0 -39.28401,8.918 -39.28401,19.909c0,10.991 17.585,19.909 39.28401,19.909c21.697,0 39.28701,-8.919 39.28701,-19.909c0,-10.991 -17.59,-19.909 -39.28701,-19.909zM141.18901,238.36328c-15.855,0 -28.712,-5.858 -28.712,-13.089c0,-7.225 12.857,-13.083 28.712,-13.083c15.857,0 28.709,5.858 28.709,13.083c0,7.231 -12.852,13.089 -28.709,13.089z" fill="#F6BE00" style=""/>
            <path d="M139.98701,230.31727c6.211,0 11.248,-2.66 11.248,-5.942c0,-3.276 -5.037,-5.937 -11.248,-5.937c-6.213,0 -11.248,2.661 -11.248,5.937c0,3.281 5.035,5.942 11.248,5.942z" fill="#F6BE00" style=""/>
        </g>
    </g>
</svg>